#!OML:ASF I:\Actors\actors\Patient Classification 1\Patient 1\Session 1\Subject1.ASF
:FULLY-SPECIFIED
:DEGREES
1459
root 0.126543 17.7915 7.82844 16.067 -12.0091 -14.6834
lowerback 12.3145 -0.0360484 3.01615
upperback 5.48276 0.163797 -3.48222
thorax -1.12755 0.147366 -5.37209
lowerneck -6.75916 4.1029 7.37011
upperneck 14.9533 3.83388 4.91102
head 5.72112 2.58209 0.606088
rclavicle -2.38542e-014 -1.59028e-014
rhumerus 41.0897 -22.7517 -2.10778
rradius 94.2049
rwrist -28.4014
rhand -2.90393 -36.1436
rfingers 7.12502
rthumb 22.8062 -64.8153
lclavicle -2.38542e-014 -1.59028e-014
lhumerus 32.9898 -60.0948 26.0034
lradius 57.4764
lwrist 63.5892
lhand -6.34601 -4.13172
lfingers 7.12502
lthumb 19.4997 24.9105
rfemur -19.3013 18.0751 28.0176
rtibia 13.0152
rfoot -9.33299 -9.01297
rtoes -6.12986
lfemur -6.52094 -28.2388 1.03266
ltibia 0.668054
lfoot -18.9514 49.3443
ltoes 11.1366
1460
root 0.106954 17.7946 7.79403 15.9645 -11.6294 -14.8595
lowerback 12.4298 0.237248 3.45665
upperback 5.42901 0.572648 -3.56125
thorax -1.18941 0.35636 -5.76531
lowerneck -7.512 3.53342 6.4669
upperneck 15.4011 2.91173 6.05139
head 5.94772 2.195 1.06408
rclavicle 3.81667e-014 -1.90833e-014
rhumerus 45.4824 -17.9914 -1.63101
rradius 91.1447
rwrist -26.0613
rhand -2.80584 -34.8443
rfingers 7.12502
rthumb 22.9003 -63.5044
lclavicle 3.81667e-014 -1.90833e-014
lhumerus 32.3575 -59.8536 28.2743
lradius 56.4756
lwrist 62.8478
lhand -6.09052 -4.0155
lfingers 7.12502
lthumb 19.7453 25.0016
rfemur -19.2342 18.0177 28.3289
rtibia 12.9743
rfoot -9.37883 -9.13165
rtoes -5.55322
lfemur -6.83914 -27.8092 1.52556
ltibia 0.906077
lfoot -18.2771 48.8047
ltoes 10.2994
1461
root 0.0836809 17.7983 7.75974 15.9156 -11.1321 -14.9823
lowerback 12.4735 0.505173 3.81489
upperback 5.35002 0.967233 -3.57153
thorax -1.2369 0.556074 -6.03602
lowerneck -7.68416 3.02566 5.55099
upperneck 15.3904 2.21409 6.86204
head 5.94761 1.86949 1.41802
rclavicle 3.97569e-014 2.8625e-014
rhumerus 50.2465 -12.9529 -2.12332
rradius 87.0384
rwrist -22.9363
rhand 0.76209 -33.1462
rfingers 7.12502
rthumb 26.3201 -61.34
lclavicle 3.97569e-014 2.8625e-014
lhumerus 31.0646 -59.4283 31.4772
lradius 55.301
lwrist 61.9657
lhand -6.35954 -3.59515
lfingers 7.12502
lthumb 19.4867 25.4484
rfemur -19.2285 17.9538 28.5668
rtibia 12.8686
rfoot -9.35371 -9.36836
rtoes -5.05949
lfemur -7.2866 -27.3945 2.05593
ltibia 1.11
lfoot -17.453 48.2384
ltoes 9.28629
1462
root 0.0596758 17.8025 7.7298 15.9324 -10.5007 -15.0559
lowerback 12.3726 0.935476 4.36897
upperback 5.22356 1.59312 -3.67078
thorax -1.20783 0.876294 -6.54085
lowerneck -7.57723 2.19581 5.41493
upperneck 15.3692 1.02805 7.45258
head 5.93012 1.33032 1.5375
rclavicle 3.65764e-014 -1.27222e-014
rhumerus 54.5856 -7.61629 -3.76382
rradius 81.2728
rwrist -18.8749
rhand 4.88966 -30.1287
rfingers 7.12502
rthumb 30.2647 -57.6677
lclavicle 3.65764e-014 -1.27222e-014
lhumerus 29.5109 -59.0852 35.2774
lradius 54.025
lwrist 60.7662
lhand -6.89342 -3.37993
lfingers 7.12502
lthumb 18.9733 25.7147
rfemur -19.289 17.8462 28.7398
rtibia 12.7209
rfoot -9.28092 -9.6837
rtoes -4.6933
lfemur -7.79877 -27.3641 2.59643
ltibia 1.1952
lfoot -16.8062 47.9172
ltoes 8.57622
1463
root 0.0358543 17.8067 7.70327 15.9839 -9.7013 -15.1399
lowerback 12.2197 1.47823 5.13636
upperback 5.03144 2.38921 -3.82067
thorax -1.16386 1.28433 -7.24097
lowerneck -8.34692 1.35719 4.29171
upperneck 16.3176 -0.335989 8.97278
head 6.38324 0.780176 2.12608
rclavicle -9.54166e-015 -1.59028e-014
rhumerus 58.5379 -2.17533 -7.30761
rradius 73.4013
rwrist -13.4108
rhand 10.5802 -25.7275
rfingers 7.12502
rthumb 35.6764 -52.1229
lclavicle -9.54166e-015 -1.59028e-014
lhumerus 27.696 -58.7042 39.6541
lradius 52.5447
lwrist 59.5237
lhand -7.13184 -3.50238
lfingers 7.12502
lthumb 18.744 25.6145
rfemur -19.3607 17.7117 28.9254
rtibia 12.5378
rfoot -9.19861 -10.1171
rtoes -4.37726
lfemur -8.44804 -27.3364 3.23647
ltibia 1.29854
lfoot -16.1188 47.4709
ltoes 7.74268
1464
root 0.0128835 17.809 7.68032 16.0415 -8.7517 -15.2168
lowerback 11.9435 1.70284 5.46904
upperback 4.68957 2.72754 -3.47359
thorax -1.32048 1.43996 -7.09529
lowerneck -7.92341 0.783848 2.66542
upperneck 16.6219 -1.0226 9.87955
head 6.42099 0.424805 2.63366
rclavicle 2.70347e-014 -1.11319e-014
rhumerus 62.9393 4.13862 -11.2092
rradius 64.1217
rwrist -7.40642
rhand 15.7611 -25.2097
rfingers 7.12502
rthumb 40.5676 -50.262
lclavicle 2.70347e-014 -1.11319e-014
lhumerus 22.9669 -57.1743 47.1129
lradius 50.751
lwrist 58.0118
lhand -7.42727 -3.73947
lfingers 7.12502
lthumb 18.4598 25.4046
rfemur -19.4014 17.5349 29.1007
rtibia 12.2843
rfoot -9.14315 -10.6506
rtoes -4.08163
lfemur -9.20126 -27.2384 3.92489
ltibia 1.41637
lfoot -15.1729 46.8645
ltoes 6.50859
1465
root -0.0113413 17.8086 7.66305 16.0743 -7.79855 -15.27
lowerback 11.8354 2.27374 6.2402
upperback 4.76607 3.56497 -3.37277
thorax -0.996058 1.8835 -7.51441
lowerneck -8.81313 -0.17834 1.9121
upperneck 16.3891 -2.32079 10.312
head 6.56601 -0.191258 2.79708
rclavicle -1.59028e-014 1.59028e-015
rhumerus 65.3729 9.40607 -14.1719
rradius 54.4144
rwrist -1.98393
rhand 21.4078 -27.993
rfingers 7.12502
rthumb 45.8442 -51.1521
lclavicle -1.59028e-014 1.59028e-015
lhumerus 21.3156 -55.9638 51.6975
lradius 49.4121
lwrist 57.6262
lhand -8.79453 -4.11947
lfingers 7.12502
lthumb 17.1442 25.1442
rfemur -19.4154 17.4024 29.2539
rtibia 12.0676
rfoot -9.20908 -11.2105
rtoes -3.85922
lfemur -9.8004 -27.3734 4.54839
ltibia 1.32211
lfoot -14.0662 46.5075
ltoes 4.99348
1466
root -0.0397109 17.8066 7.64664 16.1102 -6.79616 -15.1708
lowerback 11.7782 3.27951 7.39733
upperback 4.66456 5.01729 -3.54159
thorax -0.684695 2.64241 -8.50315
lowerneck -7.78859 -1.56725 2.08782
upperneck 14.2846 -3.98201 10.4643
head 5.7982 -1.08958 2.66084
rclavicle -4.21423e-014 -3.18055e-015
rhumerus 65.396 14.5477 -16.0985
rradius 44.9806
rwrist 2.5157
rhand 22.5585 -30.8322
rfingers 7.12502
rthumb 46.9106 -53.5377
lclavicle -4.21423e-014 -3.18055e-015
lhumerus 20.4019 -56.4212 55.2207
lradius 48.7039
lwrist 57.5606
lhand -10.0416 -5.08227
lfingers 7.12502
lthumb 15.9435 24.2815
rfemur -19.5619 17.3401 29.2289
rtibia 12.0427
rfoot -9.45064 -11.9214
rtoes -3.54316
lfemur -10.4848 -27.5268 5.03907
ltibia 1.25803
lfoot -12.8668 46.1143
ltoes 3.22948
1467
root -0.073776 17.8017 7.63328 16.1956 -5.57654 -14.8149
lowerback 11.9437 4.64 8.70485
upperback 4.76144 6.96122 -4.0569
thorax -0.0295903 3.69272 -9.97379
lowerneck -8.47741 -3.38843 1.66509
upperneck 13.0232 -6.5468 12.1513
head 5.71922 -2.27206 3.05224
rclavicle -2.38542e-015 3.18055e-014
rhumerus 62.4152 18.2941 -17.7764
rradius 38.0875
rwrist 7.5063
rhand 25.1956 -30.6603
rfingers 7.12502
rthumb 49.3407 -52.2225
lclavicle -2.38542e-015 3.18055e-014
lhumerus 22.3501 -58.6167 55.4223
lradius 48.7893
lwrist 58.3996
lhand -10.9033 -6.95915
lfingers 7.12502
lthumb 15.1137 22.469
rfemur -19.8719 17.2364 28.9119
rtibia 12.1589
rfoot -9.83037 -12.8799
rtoes -3.08924
lfemur -11.4372 -27.5051 5.34516
ltibia 1.32493
lfoot -11.7374 45.3656
ltoes 1.66025
1468
root -0.113105 17.7926 7.62933 16.3002 -4.0742 -14.2574
lowerback 11.7834 5.40342 8.7357
upperback 4.954 7.96455 -3.82645
thorax 0.468536 4.23045 -9.76329
lowerneck -8.30544 -4.52645 0.489275
upperneck 11.3447 -7.87575 13.2903
head 5.33301 -2.99282 3.49492
rclavicle 4.21423e-014 -5.88403e-014
rhumerus 59.8892 22.7789 -18.9082
rradius 35.392
rwrist 11.5476
rhand 29.2782 -29.1441
rfingers 7.12502
rthumb 53.0568 -48.6004
lclavicle 4.21423e-014 -5.88403e-014
lhumerus 21.1444 -59.1098 58.2704
lradius 49.311
lwrist 59.1847
lhand -11.0443 -7.95341
lfingers 7.12502
lthumb 14.9779 21.4849
rfemur -20.1634 17.011 28.3929
rtibia 12.2166
rfoot -10.2555 -14.0649
rtoes -2.47648
lfemur -12.4252 -27.908 5.49533
ltibia 1.22796
lfoot -10.9791 44.7653
ltoes 0.681133
1469
root -0.155732 17.785 7.62934 16.3785 -2.19715 -13.5962
lowerback 11.5733 5.74781 8.19264
upperback 5.18236 8.35101 -3.25492
thorax 0.733603 4.42054 -8.81636
lowerneck -8.14044 -5.36804 -1.43305
upperneck 10.122 -8.77942 14.5797
head 5.12891 -3.50529 4.14304
rclavicle 1.08934e-013 -5.80451e-014
rhumerus 58.0951 28.3815 -17.8203
rradius 36.2747
rwrist 8.33081
rhand 28.8019 -30.3655
rfingers 7.12502
rthumb 52.6266 -50.0914
lclavicle 1.08934e-013 -5.80451e-014
lhumerus 18.4972 -59.0818 61.8025
lradius 50.4586
lwrist 60.1514
lhand -11.1098 -8.32557
lfingers 7.12502
lthumb 14.9147 21.1175
rfemur -20.4107 16.7132 27.7628
rtibia 12.2199
rfoot -10.697 -15.5943
rtoes -1.40833
lfemur -13.5647 -28.902 5.71136
ltibia 1.02646
lfoot -10.201 44.3987
ltoes -0.515127
1470
root -0.196591 17.7825 7.63241 16.3657 0.0457051 -12.8974
lowerback 11.5105 5.78258 7.5119
upperback 5.42416 8.32636 -2.53955
thorax 0.793204 4.38446 -7.65073
lowerneck -7.7455 -5.92427 -2.48254
upperneck 8.89263 -9.27858 14.9254
head 4.78982 -3.84909 4.39137
rclavicle 4.85035e-014 -2.54444e-014
rhumerus 56.6167 34.1969 -16.1746
rradius 39.206
rwrist 4.46049
rhand 30.1526 -30.5163
rfingers 7.12502
rthumb 53.8441 -49.4592
lclavicle 4.85035e-014 -2.54444e-014
lhumerus 15.3896 -59.2046 64.9272
lradius 52.13
lwrist 61.4196
lhand -11.1153 -8.99637
lfingers 7.12502
lthumb 14.9094 20.4471
rfemur -20.52 16.2739 27.1093
rtibia 12.1804
rfoot -11.2103 -17.3578
rtoes 0.15831
lfemur -14.881 -30.0167 6.00014
ltibia 0.891707
lfoot -8.79201 43.8221
ltoes -2.83387
1471
root -0.226546 17.7808 7.64399 16.2466 2.51302 -12.2534
lowerback 11.9741 5.47241 6.87467
upperback 5.43384 7.89194 -1.71247
thorax 0.247508 4.10844 -6.46248
lowerneck -7.54526 -6.30673 -3.51322
upperneck 8.39883 -9.61312 14.9114
head 4.68116 -4.0804 4.53354
rclavicle -6.0033e-014 -1.35174e-014
rhumerus 56.6596 40.5048 -13.4687
rradius 42.801
rwrist 0.881804
rhand 30.6409 -29.5523
rfingers 7.12502
rthumb 54.2822 -48.1977
lclavicle -6.0033e-014 -1.35174e-014
lhumerus 11.2625 -59.3311 68.2699
lradius 53.9788
lwrist 62.7522
lhand -10.7009 -9.18893
lfingers 7.12502
lthumb 15.3086 20.2245
rfemur -20.3669 15.5393 26.5823
rtibia 12.0222
rfoot -11.7505 -19.0647
rtoes 1.36844
lfemur -16.1648 -31.2065 6.27672
ltibia 0.844909
lfoot -7.21785 43.0239
ltoes -5.41086
1472
root -0.244395 17.7785 7.66149 16.0487 5.05003 -11.9317
lowerback 12.2826 4.91331 6.61119
upperback 5.60954 7.16169 -0.715613
thorax -0.0254948 3.71284 -5.24499
lowerneck -7.4137 -6.52166 -4.1766
upperneck 7.87584 -9.70733 14.3715
head 4.5095 -4.20487 4.47007
rclavicle -2.42517e-014 6.67916e-014
rhumerus 57.6521 46.1133 -10.8155
rradius 46.2163
rwrist -4.13351
rhand 31.1519 -29.4104
rfingers 7.12502
rthumb 54.7395 -47.7358
lclavicle -2.42517e-014 6.67916e-014
lhumerus 7.6005 -59.1898 70.8826
lradius 55.562
lwrist 63.8711
lhand -9.93432 -8.86627
lfingers 7.12502
lthumb 16.0469 20.4892
rfemur -20.0656 14.6209 26.481
rtibia 11.8711
rfoot -12.2629 -20.5667
rtoes 2.00486
lfemur -17.3821 -32.3104 6.82921
ltibia 0.904739
lfoot -5.90572 42.006
ltoes -7.63891
1473
root -0.254697 17.7771 7.68043 15.7552 7.35228 -11.9061
lowerback 12.4928 4.32256 6.82258
upperback 5.92496 6.43161 0.181428
thorax 0.00834903 3.34814 -4.36544
lowerneck -7.3123 -6.73611 -4.66087
upperneck 7.20112 -9.81529 13.862
head 4.29314 -4.33058 4.38744
rclavicle -1.5704e-014 2.78299e-015
rhumerus 59.0073 51.149 -8.36465
rradius 49.5923
rwrist -6.75084
rhand 32.3718 -29.6515
rfingers 7.12502
rthumb 55.8257 -47.1756
lclavicle -1.5704e-014 2.78299e-015
lhumerus 4.98983 -59.446 72.1079
lradius 56.6782
lwrist 64.601
lhand -9.46916 -9.36154
lfingers 7.12502
lthumb 16.4948 19.9573
rfemur -19.6993 13.8091 26.7204
rtibia 11.8223
rfoot -12.8121 -21.8177
rtoes 2.82424
lfemur -18.3516 -33.1515 7.51845
ltibia 0.970149
lfoot -4.69407 40.8733
ltoes -9.78296
